PathFileType	4	(X/Y/Z)	49_1_rein_26_p0_0-216.trc
DataRate	CameraRate	NumFrames	NumMarkers	Units	OrigDataRate	OrigDataStartFrame	OrigNumFrames
45.0	45.0	5	27	m	45.0	27	217
Frame#	Time	RHip			RKnee			RAnkle			RBigToe			RSmallToe			RHeel			LHip			LKnee			LAnkle			LBigToe			LSmallToe			LHeel			Neck			Head			Nose			RShoulder			RElbow			RWrist			RThumb			RIndex			RPinky			LShoulder			LElbow			LWrist			LThumb			LIndex			LPinky			
		X1	Y1	Z1	X2	Y2	Z2	X3	Y3	Z3	X4	Y4	Z4	X5	Y5	Z5	X6	Y6	Z6	X7	Y7	Z7	X8	Y8	Z8	X9	Y9	Z9	X10	Y10	Z10	X11	Y11	Z11	X12	Y12	Z12	X13	Y13	Z13	X14	Y14	Z14	X15	Y15	Z15	X16	Y16	Z16	X17	Y17	Z17	X18	Y18	Z18	X19	Y19	Z19	X20	Y20	Z20	X21	Y21	Z21	X22	Y22	Z22	X23	Y23	Z23	X24	Y24	Z24	X25	Y25	Z25	X26	Y26	Z26	X27	Y27	Z27	
27	0.6	0.3668511294001801	0.5797043179718391	0.8143964743834945	0.3474383633159464	0.7995070863697167	1.2120174987470536	0.32748438004848357	0.9927648091433432	1.5830555231878216	0.31373083101699517	0.8948696196772546	1.6743622948315877	0.36593232172585866	0.8806440153848474	1.6696213596621357	0.3109549283750481	1.1323340753252027	1.6286455928264953	0.1386150296266097	0.6715684510310458	0.7973846885110517	0.13157738631496183	0.8660213123475036	1.205742699841808	0.14228349191648187	1.0269946885221541	1.5909166397869456	0.15498896710755988	0.8385972942660759	1.6495288925100544	0.09923689071407438	0.9116103594120598	1.6525744793074673	0.1671470619630268	1.0764158906329209	1.6358731771454422	0.27452766045270843	0.403656808920904	0.19084179678220153	0.27495824250165113	0.28963220541194196	-0.049097573176780755	0.2553828896225875	0.23854134760096546	0.12197526372954494	0.4218336481530103	0.42167291757667935	0.2893311407716675	0.47282654119022355	0.49222787308548294	0.5917194494869659	0.28776369551767705	0.44945708329644085	0.7991243325607418	0.2095842192974014	0.4493539725082304	0.8555181010725935	0.20161515686420356	0.47168758161051705	0.8778902598120437	0.20329306486755735	0.5391227514800546	0.8690095178849052	0.10116724041098946	0.47573435472699194	0.2657290497853266	0.0705088639890371	0.5234355980005072	0.5302403730263393	0.13709966353129474	0.48854216818008983	0.7718442717035114	0.20707001352442897	0.4310675761939874	0.8210584112232104	0.20466110802519472	0.4609621945691367	0.8795940644775869	0.20074899076753133	0.4750318371287975	0.8817386550604566
28	0.6222222222222222	0.3637955784986535	0.5936921552910848	0.8138350588610489	0.347342452940095	0.7996020565326528	1.2122039828274227	0.3284367940453268	0.9961928455247139	1.587501905677982	0.3094109026448163	0.8803681604036441	1.6712250900457608	0.36590939818586726	0.8805265090517027	1.6695634889895767	0.3109976367046459	1.1324504622450209	1.6285477912506627	0.13857201461946325	0.6715241741553688	0.7973971358208575	0.1318358614264226	0.866264520268897	1.2097387684881609	0.14336708271810175	1.0251544912764792	1.5866933080107812	0.15503743241825008	0.8385101025306287	1.6494817238359007	0.10360257834792139	0.8960995591381294	1.649157516735698	0.1671177983065775	1.0766247264729425	1.6360075500543971	0.27449689652750026	0.40365335835119937	0.19086090325718838	0.27493723970957584	0.28974482046923977	-0.048956975464077644	0.2523280119285536	0.24955473477770443	0.11854834479128767	0.42176054730823637	0.4214567743566001	0.2893447042230536	0.47246008112624577	0.4930219883220363	0.5952627973556034	0.28771427292274726	0.44905920780391256	0.7991102167508055	0.20707653744073143	0.43515654171105245	0.8534177992152954	0.19821450485378841	0.4583429230336575	0.8743495501615767	0.2038157866069561	0.5416951733232903	0.8725237953704402	0.10117154271570797	0.47581926701991023	0.2657173153557962	0.07015595854351458	0.5242666333514838	0.5337297333060027	0.137064434226467	0.48844162922951395	0.7718231259189071	0.20370061165250505	0.42033812095111256	0.8214393460203396	0.20219511972665274	0.449339439549962	0.8767129061739568	0.20092754719943096	0.47551797047262856	0.8818278264393506
29	0.6444444444444445	0.3638960743424617	0.5938215966068666	0.8138276205158309	0.34707094425787277	0.7992955282684804	1.2083222360417532	0.32837825093204126	0.9962454294821667	1.587456739025654	0.3095503410088539	0.8807189227381681	1.6712230482861596	0.3660510623454594	0.8809545916145138	1.6696044989610885	0.3065465603085318	1.1160795701257098	1.62542714597879	0.1385748777982572	0.6714763010639662	0.7974105772811294	0.13582684356910826	0.8676750409759411	1.2058049629570424	0.1442336225924231	1.029074225382356	1.591964278338222	0.15493441970424432	0.8382742229149885	1.6495193254914666	0.0991139875682396	0.9120700873956329	1.6527260274487217	0.16685162262453038	1.0764471867396876	1.6362224440179893	0.2744868896496986	0.4036207597143369	0.19087756674573836	0.2749530167054329	0.28965591883527897	-0.049082198859342153	0.25213659128137256	0.2477780417826862	0.11575037188696087	0.42181219296151157	0.42140131603448866	0.28936055251415815	0.4724860603647135	0.493117885367067	0.5953259322043789	0.2923042371839762	0.45045772171831877	0.7991103395720206	0.21048751018576436	0.42292068226102986	0.8496747056232238	0.1982008152970915	0.45805016465608545	0.8742925118385257	0.20335354465062405	0.5388516695021577	0.8687629206046183	0.10117364668339131	0.47581296859536315	0.2657219467725729	0.07050640626843825	0.5234709819895016	0.5302335488450687	0.13704003285260544	0.48845451157177744	0.7718259455792438	0.2037018463432292	0.4200633490179591	0.8213451294474846	0.20149219746441366	0.4499000879004742	0.8798520791061646	0.20096890454498034	0.4754517549103849	0.8817453780137728
30	0.6666666666666666	0.366886282690661	0.579527301749305	0.8144519882844967	0.34808217541382636	0.8022923215523794	1.2163565899637934	0.32841824068893544	0.9962096271718526	1.587429759166339	0.3093356496414192	0.8801516738293295	1.6712332160603403	0.36580374547766253	0.880015484159294	1.669492872215714	0.3110017535583006	1.132480473241487	1.628393455840333	0.13858737063101292	0.671380849947443	0.7974155753418848	0.13160190895579985	0.8661019501153651	1.2057098646237197	0.14334670668742205	1.0250496097275943	1.5866200917769644	0.155020883964619	0.8382623205369014	1.6494308419259385	0.10364822481393754	0.8954897728024489	1.648990397837466	0.16613209875703466	1.0731683003784056	1.6315593637343437	0.27448177942304114	0.40368326418488104	0.19091311059767674	0.27493672384629386	0.289627643262883	-0.04907397869728946	0.2520636301022261	0.24793915184429724	0.11579191971879495	0.4217708043521363	0.4213977526668174	0.28934960487470907	0.46833355795913056	0.48231656094208786	0.6006894847596687	0.29215727809792547	0.45051711245171633	0.7991105973530509	0.20667146590324084	0.4351175081186406	0.8519927500848522	0.20136355526639466	0.47089299505513293	0.8740046761594614	0.2071593650062348	0.5292574638422642	0.8760434796625938	0.10120618723618212	0.475901587331883	0.2656803105522546	0.07048778871938606	0.5235193192513913	0.5302103123385162	0.1370633079174516	0.4884837832021125	0.7718059293661451	0.2000152703190842	0.43307925875107806	0.8244003118542395	0.20468786635504793	0.4609768250278612	0.8795745054790021	0.2010164316743434	0.47536359176421916	0.8817323768069296
31	0.6888888888888889	0.37098757197994026	0.5921173626412367	0.8137238622693336	0.3481795162844273	0.8021244806176577	1.2162546995836143	0.3274380368585915	0.9928876205361267	1.5828924740426082	0.3093536151769868	0.880287852218163	1.6714085462124895	0.3658573683832057	0.8805790258526688	1.6696893981738596	0.31094989660238026	1.1326088995801036	1.628550611044094	0.13867570365952595	0.6714998324581897	0.7974531959230576	0.13164272439207694	0.8661275758955037	1.2056958213587283	0.14332213800029528	1.025358299723601	1.5867378559063077	0.15502120928495375	0.8385727878765759	1.6494604173317258	0.10362639608655051	0.8959840030034522	1.6490996696738884	0.1609592064405068	1.070525829344635	1.6311571139627958	0.2744707156360554	0.40367445152169557	0.19089559996293812	0.27491068271742836	0.2896843053111573	-0.04888544081070542	0.25208728679911907	0.24798256070314495	0.11577055771307901	0.4217400272586704	0.42139129216287713	0.28933245026162435	0.4682976928280666	0.4822646620686426	0.6007195335000067	0.2912258580057358	0.46091284269799526	0.7985376105543772	0.2100289521716845	0.4485060465266122	0.8595670172140113	0.2017715216553049	0.4717449931533259	0.8781221516959506	0.21100842473944917	0.5424184118747057	0.8793921488777018	0.10120445639469851	0.47590604316003177	0.2656636999197889	0.0702257119286862	0.520701266280866	0.5268119759432757	0.13711540824538448	0.48856001970680685	0.7718150755756309	0.2067069862149397	0.43173973591990067	0.8247575220179543	0.20518713773369615	0.46276144120868967	0.8824344271609681	0.19641658500880566	0.47465057912136177	0.8819561861513969
